<?xml version="1.0" standalone="no"?>
<!DOCTYPE svg PUBLIC "-//W3C//DTD SVG 20010904//EN"
 "http://www.w3.org/TR/2001/REC-SVG-20010904/DTD/svg10.dtd">
<svg version="1.0" xmlns="http://www.w3.org/2000/svg"
 width="139.000000pt" height="126.000000pt" viewBox="0 0 139.000000 126.000000"
 preserveAspectRatio="xMidYMid meet">

<g transform="translate(0.000000,126.000000) scale(0.100000,-0.100000)"
fill="#000000" stroke="none">
<path d="M542 1240 c-107 -28 -198 -77 -271 -145 -121 -112 -172 -221 -186
-390 -4 -50 -13 -97 -20 -105 -27 -30 -65 -119 -65 -150 0 -71 58 -120 143
-120 l45 0 66 -99 c137 -206 287 -286 358 -191 20 28 27 30 83 30 56 0 63 -2
83 -30 77 -103 254 6 394 244 26 44 30 46 73 46 83 0 145 49 145 114 0 36 -27
106 -56 143 -21 28 -26 46 -29 116 -9 212 -125 386 -320 483 -150 74 -298 92
-443 54z m311 -74 c140 -44 283 -162 337 -278 44 -94 55 -185 35 -284 -39
-190 -182 -428 -304 -506 -61 -38 -81 -37 -81 6 0 44 -19 60 -54 46 -35 -13
-131 -13 -175 0 -44 12 -61 -1 -61 -46 0 -44 -22 -45 -86 -2 -57 39 -128 124
-190 229 -165 281 -157 508 25 690 75 75 175 131 274 154 74 17 210 12 280 -9z
m452 -666 c8 -16 15 -38 15 -49 0 -22 -35 -51 -61 -51 -16 0 -15 6 4 65 12 36
22 65 24 65 1 0 9 -13 18 -30z m-1178 -40 c20 -57 21 -60 3 -60 -10 0 -28 8
-41 19 -21 17 -22 21 -11 60 7 22 16 41 20 41 4 0 17 -27 29 -60z"/>
<path d="M368 805 c-29 -16 -42 -43 -32 -69 7 -17 49 -22 59 -6 13 21 54 10
67 -17 31 -65 96 -20 68 47 -23 55 -103 77 -162 45z"/>
<path d="M899 805 c-36 -19 -55 -68 -41 -100 16 -36 51 -33 65 5 12 31 43 40
64 19 6 -6 21 -9 34 -7 17 2 25 10 27 29 6 56 -85 89 -149 54z"/>
<path d="M612 758 c-33 -33 1 -92 61 -103 71 -14 140 45 110 94 -16 25 -53 26
-60 2 -7 -28 -49 -28 -56 -1 -6 22 -36 27 -55 8z"/>
</g>
</svg>
